<?xml version="1.0" encoding="UTF-8"?>
<svg width="162.6px" height="26.1px" viewBox="0 0 1626 261" version="1.1" xmlns="http://www.w3.org/2000/svg" xmlns:xlink="http://www.w3.org/1999/xlink">
    <g id="Page-1" stroke="none" stroke-width="1" fill="none" fill-rule="evenodd">
        <g id="Group" transform="translate(3.000000, -50.000000)">
            <g id="b_" transform="translate(491.000000, 74.000000)" fill="#000000" fill-rule="nonzero">
                <path d="M0,36.6785714 L67.0982318,36.6785714 L67.0982318,56.4285714 L0,56.4285714 L0,36.6785714 Z M0,0 L67.0982318,0 L67.0982318,19.75 L0,19.75 L0,0 Z M120.382122,73.075 L0,73.075 L0,92.825 L115.871316,92.825 C128.557957,92.825 158.160118,93.1071429 169.155206,110.882143 L169.155206,99.8785714 C163.798625,82.3857143 148.010806,73.075 120.382122,73.075 Z M120.664047,109.753571 L0,109.753571 L0,129.503571 L115.871316,129.503571 C144.063851,129.503571 161.825147,130.632143 169.155206,134.582143 L169.155206,125.835714 C163.516699,112.010714 139.834971,109.753571 120.664047,109.753571 L120.664047,109.753571 Z M120.382122,202.860714 L0,202.860714 L0,183.110714 L115.871316,183.110714 C128.557957,183.110714 158.160118,182.828571 169.155206,165.053571 L169.155206,176.057143 C163.798625,193.55 148.010806,202.860714 120.382122,202.860714 Z M120.664047,166.182143 L0,166.182143 L0,146.432143 L115.871316,146.432143 C144.063851,146.432143 161.825147,145.303571 169.155206,141.353571 L169.155206,150.1 C163.516699,163.925 139.834971,166.182143 120.664047,166.182143 L120.664047,166.182143 Z M198.475442,237 L287,237 L287,224.867857 L201.01277,224.867857 C193.400786,224.867857 175.357564,224.585714 168.873281,214.146429 L168.873281,220.917857 C171.97446,231.357143 181.559921,237 198.475442,237 L198.475442,237 Z M198.193517,214.710714 L286.718075,214.710714 L286.718075,202.578571 L201.01277,202.578571 C183.815324,202.578571 173.102161,202.014286 168.873281,199.475 L168.873281,204.835714 C172.256385,213.3 186.634578,214.710714 198.193517,214.710714 L198.193517,214.710714 Z" id="Shape"></path>
            </g>
            <g id="css_m" transform="translate(0.000000, 53.000000)">
                <g id="flowRoot3336" transform="translate(13.000000, 109.000000)" fill="#000000" fill-rule="nonzero">
                    <path d="M19.3521005,0.567252747 C24.5401644,0.567252747 28.5658752,1.93970696 31.4292329,4.68461538 C34.2928444,7.42952381 35.8826913,10.5479267 36.1987735,14.0398242 L30.7876749,14.0398242 C30.1740438,11.3883106 28.9467817,9.28762711 27.1058886,7.73777363 C25.2836134,6.18792015 22.7175084,5.41299341 19.4075735,5.41299341 C15.3725114,5.41299341 12.1090791,6.84145055 9.61727671,9.69836484 C7.14417686,12.5366256 5.90762694,16.896611 5.90762694,22.7783209 C5.90762694,27.5959326 7.02330822,31.507852 9.25467078,34.5140791 C11.5046513,37.5016952 14.8516528,38.9955033 19.2956753,38.9955033 C23.386549,38.9955033 26.5012492,37.4176484 28.6397758,34.2619385 C29.774075,32.6000791 30.6201344,30.4154125 31.1779539,27.7079385 L36.5890525,27.7079385 C36.1055779,32.0398799 34.5064221,35.6717846 31.7915849,38.6036527 C28.537504,42.1328147 24.1491661,43.8973956 18.6265712,43.8973956 C13.8662973,43.8973956 9.86851339,42.4502637 6.63321963,39.556 C2.37520746,35.728085 0.24620137,29.8182462 0.24620137,21.8264835 C0.24620137,15.7579414 1.84535723,10.7816264 5.04366895,6.89753846 C8.50229361,2.67751795 13.2718766,0.567252747 19.3524178,0.567252747 L19.3521005,0.567252747 Z" id="path4379"></path>
                    <path d="M46.9934247,29.5545055 C47.1235854,31.8886125 47.6721382,33.7838952 48.6390831,35.2403538 C50.4799763,37.9665663 53.7247906,39.3296725 58.373526,39.3296725 C60.4561565,39.3296725 62.3528189,39.0309194 64.0635132,38.4334132 C67.3734058,37.2757077 69.0283521,35.2030256 69.0283521,32.215367 C69.0283521,29.9746549 68.331046,28.3781465 66.9364338,27.4258418 C65.523246,26.4921905 63.3104591,25.6799355 60.2980731,24.9890769 L54.7475301,23.7286923 C51.1215554,22.9070894 48.5554504,22.0014608 47.0492151,21.0118066 C44.4459164,19.2939018 43.1442671,16.7263927 43.1442671,13.3092791 C43.1442671,9.61206593 44.4180107,6.57779487 46.9654977,4.20646593 C49.5129848,1.83500952 53.1204262,0.649281319 57.7878219,0.649281319 C62.08307,0.649281319 65.7277473,1.69495971 68.7218539,3.78631648 C71.7342399,5.85897729 73.2404329,9.18282344 73.2404329,13.7578549 L68.0245689,13.7578549 C67.7456465,11.5544498 67.1506123,9.86456777 66.2394662,8.68820879 C64.5473475,6.54084908 61.6744693,5.46716923 57.6208315,5.46716923 C54.3481326,5.46716923 51.9959225,6.15807033 50.5642014,7.53987253 C49.1323956,8.92167473 48.4164927,10.5275311 48.4164927,12.3574418 C48.4164927,14.3740996 49.2532642,15.8492542 50.9268073,16.7829055 C52.0239129,17.3804117 54.5062371,18.1273158 58.3737799,19.0236176 L64.1195575,20.3400264 C66.8901639,20.9748821 69.028479,21.8431612 70.5345027,22.9448637 C73.1377591,24.8681692 74.4393872,27.6598176 74.4393872,31.3198088 C74.4393872,35.8761018 72.7844409,39.1345121 69.4745484,41.0950396 C66.1832738,43.0556945 62.35284,44.036022 57.983247,44.036022 C52.8882729,44.036022 48.8995865,42.7289399 46.0171877,40.1147758 C43.1350005,37.5192652 41.7217915,33.9995363 41.7775607,29.555589 L46.9934247,29.555589 L46.9934247,29.5545055 Z" id="path4381"></path>
                    <path d="M85.0375342,29.5545055 C85.1676992,31.8886125 85.716252,33.7838952 86.6831927,35.2403538 C88.5240858,37.9665663 91.7689002,39.3296725 96.4176356,39.3296725 C98.5002661,39.3296725 100.396928,39.0309194 102.107623,38.4334132 C105.417515,37.2757077 107.072462,35.2030256 107.072462,32.215367 C107.072462,29.9746549 106.375156,28.3781465 104.980543,27.4258418 C103.567356,26.4921905 101.354569,25.6799355 98.3421826,24.9890769 L92.7916397,23.7286923 C89.165665,22.9070894 86.59956,22.0014608 85.0933247,21.0118066 C82.4900683,19.2939018 81.1884402,16.7263927 81.1884402,13.3092791 C81.1884402,9.61206593 82.4621837,6.57779487 85.0096708,4.20646593 C87.5571578,1.83500952 91.1645992,0.649281319 95.831995,0.649281319 C100.127243,0.649281319 103.77192,1.69495971 106.766027,3.78631648 C109.778371,5.85897729 111.284542,9.18282344 111.284542,13.7578549 L106.068679,13.7578549 C105.789756,11.5544498 105.194722,9.86456777 104.283576,8.68820879 C102.591457,6.54084908 99.7185788,5.46716923 95.6649411,5.46716923 C92.3922422,5.46716923 90.0400321,6.15807033 88.608311,7.53987253 C87.1765052,8.92167473 86.4606023,10.5275311 86.4606023,12.3574418 C86.4606023,14.3740996 87.2973738,15.8492542 88.9709169,16.7829055 C90.0680225,17.3804117 92.5503467,18.1273158 96.4178895,19.0236176 L102.163667,20.3400264 C104.934316,20.9748821 107.072631,21.8431612 108.578612,22.9448637 C111.181869,24.8681692 112.483497,27.6598176 112.483497,31.3198088 C112.483497,35.8761018 110.828551,39.1345121 107.518658,41.0950396 C104.227383,43.0556945 100.39695,44.036022 96.0273566,44.036022 C90.9323825,44.036022 86.943696,42.7289399 84.0612973,40.1147758 C81.17911,37.5192652 79.7659011,33.9995363 79.8216703,29.555589 L85.0375342,29.555589 L85.0375342,29.5545055 Z" id="path4383"></path>
                    <path d="M1.94409589,73.3859341 L9.89311872,73.3859341 L21.6636895,108.173187 L33.3504795,73.3859341 L41.2163562,73.3859341 L41.2163562,114.531516 L35.9447018,114.531516 L35.9447018,90.2473626 C35.9447018,89.4071062 35.9632986,88.0159985 36.0004922,86.0740396 C36.0376858,84.1320806 36.0562826,82.0500718 36.0562826,79.8280132 L24.3694927,114.531516 L18.8747402,114.531516 L7.10416941,79.8280132 L7.10416941,81.0883978 C7.10416941,82.0967055 7.12276409,83.637211 7.15995347,85.7099143 C7.21573965,87.7639216 7.24363274,89.2764044 7.24363274,90.2473626 L7.24363274,114.531516 L1.94409589,114.531516 L1.94409589,73.3859341 L1.94409589,73.3859341 Z" id="path4385"></path>
                    <path d="M67.4054795,72.2705495 C74.6389802,72.2705495 79.9941826,74.6045714 83.4710868,79.2726154 C86.1859239,82.9137832 87.5433425,87.5726916 87.5433425,93.2493407 C87.5433425,99.3926667 85.990668,104.499641 82.8853192,108.570264 C79.2407265,113.350484 74.0435651,115.740593 67.2938352,115.740593 C60.9903861,115.740593 56.0348352,113.649237 52.4271822,109.466523 C49.2102948,105.433207 47.6018511,100.335581 47.6018511,94.173644 C47.6018511,88.6090432 48.9778665,83.8475194 51.7298973,79.8890725 C55.2629091,74.8101421 60.4879974,72.2705495 67.4051621,72.2705495 L67.4054795,72.2705495 Z M67.9633264,110.75527 C72.8539261,110.75527 76.3868957,108.99991 78.5622351,105.489444 C80.7564464,101.960282 81.853552,97.9083553 81.853552,93.3336637 C81.853552,88.497356 80.5890963,84.6041326 78.0601849,81.6539934 C75.5498914,78.7036842 72.1098001,77.2285297 67.7399109,77.2285297 C63.5000936,77.2285297 60.0413843,78.6943363 57.3637831,81.6259495 C54.6861395,84.5389092 53.3473178,88.843019 53.3473178,94.5382791 C53.3473178,99.0945722 54.4909048,102.941056 56.7780789,106.07773 C59.0838287,109.19609 62.8120753,110.75527 67.9628187,110.75527 L67.9633264,110.75527 Z" id="path4387"></path>
                    <path d="M109.860776,109.772967 C111.738863,109.772967 113.282228,109.576904 114.490873,109.184777 C116.64789,108.456526 118.414396,107.056071 119.79039,104.98341 C120.887496,103.321551 121.677786,101.192759 122.161261,98.5970363 C122.440183,97.0471828 122.579644,95.6093777 122.579644,94.2836209 C122.579644,89.1859945 121.566235,85.2273352 119.539416,82.4076429 C117.529523,79.5905 114.284074,78.1819286 109.803069,78.1819286 L99.9569184,78.1819286 L99.9569184,109.775995 L109.858923,109.775995 L109.860776,109.772967 Z M94.3803653,73.3891209 L110.97595,73.3891209 C116.609998,73.3891209 120.979718,75.3964308 124.08511,79.4110505 C126.855716,83.0335648 128.241019,87.6737773 128.241019,93.3316879 C128.241019,97.7010212 127.422844,101.650333 125.786495,105.179622 C122.904308,111.416428 117.948757,114.534831 110.919842,114.534831 L94.3794767,114.534831 L94.3794767,73.3891209 L94.3803653,73.3891209 Z" id="path4389"></path>
                    <path d="M141.430913,73.3857429 L141.430913,98.817978 C141.430913,101.805594 141.988754,104.288971 143.104435,106.26811 C144.75936,109.255726 147.548669,110.749534 151.472362,110.749534 C156.176782,110.749534 159.375052,109.134351 161.06717,105.903985 C161.978308,104.14873 162.433877,101.786664 162.433877,98.8177868 L162.433877,73.3857429 L168.068137,73.3857429 L168.068137,96.4933253 C168.068137,101.55356 167.389428,105.446783 166.032009,108.172996 C163.540291,113.13975 158.835871,115.623127 151.918749,115.623127 C145.00133,115.623127 140.306219,113.13975 137.833416,108.172996 C136.475997,105.446783 135.797288,101.55356 135.797288,96.4933253 L135.797288,73.3857429 L141.431548,73.3857429 L141.430913,73.3857429 Z" id="path4391"></path>
                    <polygon id="path4393" points="176.580776 73.3859341 182.131319 73.3859341 182.131319 109.62956 202.88294 109.62956 202.88294 114.531134 176.58084 114.531134 176.58084 73.3855516"></polygon>
                    <polygon id="path4395" points="208.90621 73.3859341 238.778516 73.3859341 238.778516 78.4276 214.317055 78.4276 214.317055 90.9199077 236.937877 90.9199077 236.937877 95.6814527 214.317055 95.6814527 214.317055 109.630134 239.196785 109.630134 239.196785 114.531708 208.905575 114.531708 208.905575 73.3861253"></polygon>
                    <path d="M250.155571,101.257802 C250.285736,103.591909 250.834289,105.487192 251.801229,106.943651 C253.642122,109.669863 256.886937,111.032969 261.535672,111.032969 C263.618303,111.032969 265.514965,110.734216 267.225659,110.13671 C270.535552,108.979004 272.190498,106.906322 272.190498,103.918664 C272.190498,101.677952 271.493192,100.081443 270.09858,99.1291385 C268.685392,98.1954872 266.472605,97.3832322 263.460219,96.6923736 L257.909676,95.431989 C254.283702,94.6103861 251.717596,93.7047575 250.211361,92.7151033 C247.608105,90.9971985 246.306477,88.4296894 246.306477,85.0125758 C246.306477,81.3153626 247.58022,78.2810916 250.127707,75.9097626 C252.675194,73.5383062 256.282636,72.352578 260.950032,72.352578 C265.24528,72.352578 268.889957,73.3982564 271.884063,75.4896132 C274.896407,77.562274 276.402579,80.8861201 276.402579,85.4611516 L271.186715,85.4611516 C270.907793,83.2577465 270.312758,81.5678645 269.401612,80.3915055 C267.709494,78.2441458 264.836615,77.1704659 260.782978,77.1704659 C257.510279,77.1704659 255.158069,77.861367 253.726347,79.2431692 C252.294542,80.6249714 251.578639,82.2308278 251.578639,84.0607385 C251.578639,86.0773963 252.41541,87.5525509 254.088953,88.4862022 C255.186059,89.0837084 257.668383,89.8306125 261.535926,90.7269143 L267.281704,92.0433231 C270.052352,92.6781788 272.190667,93.5464579 273.696649,94.6481604 C276.299905,96.5714659 277.601533,99.3631143 277.601533,103.023105 C277.601533,107.579399 275.946587,110.837809 272.636695,112.798336 C269.34542,114.758991 265.514986,115.739319 261.145393,115.739319 C256.050419,115.739319 252.061733,114.432237 249.179334,111.818073 C246.297147,109.222562 244.883938,105.702833 244.939707,101.258886 L250.155571,101.258886 L250.155571,101.257802 Z" id="path4397"></path>
                </g>
                <rect id="rect4156" stroke="#000000" stroke-width="5" x="0" y="0" width="238" height="237"></rect>
            </g>
            <g id="React-icon" transform="translate(939.000000, 74.000000)" fill="#000000" fill-rule="nonzero">
                <path d="M231,103.023575 C231,87.6997024 211.836323,73.1773861 182.455157,64.171664 C189.235426,34.1840238 186.221973,10.3259327 172.943946,2.68757153 C169.883408,0.895857176 166.304933,0.0471503777 162.396861,0.0471503777 L162.396861,10.5616846 C164.56278,10.5616846 166.304933,10.986038 167.764574,11.7875944 C174.168161,15.4653239 176.946188,29.468986 174.780269,47.4804303 C174.262332,51.9125658 173.414798,56.5804532 172.378924,61.3426413 C163.150224,59.0794232 153.073991,57.3348592 142.479821,56.2032502 C136.123318,47.4804303 129.53139,39.5591669 122.892377,32.6280613 C138.242152,18.3414969 152.650224,10.5145342 162.443946,10.5145342 L162.443946,0 C162.443946,0 162.443946,0 162.443946,0 C149.495516,0 132.544843,9.24147402 115.40583,25.2726024 C98.2668161,9.33577478 81.3161435,0.188601511 68.367713,0.188601511 L68.367713,10.7031357 C78.1143498,10.7031357 92.5695067,18.482948 107.919283,32.6752117 C101.327354,39.6063172 94.735426,47.4804303 88.4730942,56.2032502 C77.8318386,57.3348592 67.7556054,59.0794232 58.5269058,61.3897917 C57.4439462,56.6747539 56.6434978,52.1011673 56.0784753,47.7161822 C53.8654709,29.7047379 56.5964126,15.7010758 62.9529148,11.9761959 C64.3654709,11.1274891 66.2017937,10.7502861 68.367713,10.7502861 L68.367713,0.235751888 C68.367713,0.235751888 68.367713,0.235751888 68.367713,0.235751888 C64.4125561,0.235751888 60.8340807,1.08445869 57.7264574,2.87617304 C44.4955157,10.5145342 41.529148,34.3254749 48.3565022,64.2188144 C19.0695067,73.2716869 0,87.7468528 0,103.023575 C0,118.347448 19.1636771,132.869764 48.544843,141.875486 C41.764574,171.863127 44.7780269,195.721218 58.0560538,203.359579 C61.1165919,205.151293 64.6950673,206 68.6502242,206 C81.5986547,206 98.5493274,196.758526 115.688341,180.727398 C132.827354,196.664225 149.778027,205.811398 162.726457,205.811398 C166.681614,205.811398 170.26009,204.962692 173.367713,203.170977 C186.598655,195.532616 189.565022,171.721675 182.737668,141.828336 C211.930493,132.822614 231,118.300298 231,103.023575 Z M169.695067,71.5742733 C167.952915,77.656672 165.786996,83.9276722 163.338565,90.1986725 C161.408072,86.4266423 159.383408,82.654612 157.170404,78.8825818 C155.004484,75.1105516 152.697309,71.4328222 150.390135,67.8493935 C157.076233,68.8395514 163.526906,70.0654612 169.695067,71.5742733 Z M148.130045,121.789425 C144.457399,128.154726 140.690583,134.189975 136.782511,139.80087 C129.766816,140.413825 122.656951,140.743877 115.5,140.743877 C108.390135,140.743877 101.280269,140.413825 94.3116592,139.84802 C90.4035874,134.237125 86.5896861,128.249027 82.9170404,121.930877 C79.338565,115.754177 76.0896861,109.483177 73.1233184,103.165026 C76.0426009,96.8468757 79.338565,90.5287251 82.8699552,84.3520256 C86.5426009,77.9867247 90.309417,71.9514763 94.2174888,66.3405814 C101.233184,65.7276265 108.343049,65.3975738 115.5,65.3975738 C122.609865,65.3975738 129.719731,65.7276265 136.688341,66.293431 C140.596413,71.9043259 144.410314,77.8924239 148.08296,84.2105745 C151.661435,90.387274 154.910314,96.6582742 157.876682,102.976425 C154.910314,109.294575 151.661435,115.612726 148.130045,121.789425 Z M163.338565,115.659876 C165.881166,121.978027 168.047085,128.296178 169.836323,134.425727 C163.668161,135.934539 157.170404,137.207599 150.43722,138.197757 C152.744395,134.567178 155.05157,130.842298 157.217489,127.023117 C159.383408,123.251087 161.408072,119.431907 163.338565,115.659876 Z M115.59417,165.969329 C111.215247,161.442893 106.836323,156.397803 102.504484,150.881209 C106.742152,151.06981 111.073991,151.211261 115.452915,151.211261 C119.878924,151.211261 124.257848,151.11696 128.542601,150.881209 C124.304933,156.397803 119.926009,161.442893 115.59417,165.969329 Z M80.5627803,138.197757 C73.8766816,137.207599 67.426009,135.981689 61.2578475,134.472877 C63,128.390478 65.1659193,122.119478 67.6143498,115.848478 C69.544843,119.620508 71.5695067,123.392538 73.7825112,127.164569 C75.9955157,130.936599 78.2556054,134.614328 80.5627803,138.197757 Z M115.358744,40.077821 C119.737668,44.6042573 124.116592,49.6493477 128.44843,55.1659419 C124.210762,54.9773404 119.878924,54.8358892 115.5,54.8358892 C111.073991,54.8358892 106.695067,54.93019 102.410314,55.1659419 C106.647982,49.6493477 111.026906,44.6042573 115.358744,40.077821 Z M80.5156951,67.8493935 C78.2085202,71.4799725 75.9013453,75.2048524 73.735426,79.024033 C71.5695067,82.7960632 69.544843,86.5680934 67.6143498,90.3401236 C65.0717489,84.021973 62.9058296,77.7038224 61.1165919,71.5742733 C67.2847534,70.1126116 73.7825112,68.8395514 80.5156951,67.8493935 Z M37.9035874,126.881666 C21.235426,119.761959 10.4529148,110.426184 10.4529148,103.023575 C10.4529148,95.6209659 21.235426,86.2380407 37.9035874,79.1654841 C41.9529148,77.4209201 46.3789238,75.8649577 50.9461883,74.4032959 C53.6300448,83.64477 57.161435,93.263447 61.5403587,103.117876 C57.2085202,112.925154 53.7242152,122.496681 51.0874439,131.691005 C46.426009,130.229343 42,128.62623 37.9035874,126.881666 Z M63.235426,194.259556 C56.8318386,190.581827 54.0538117,176.578164 56.2197309,158.56672 C56.7376682,154.134585 57.5852018,149.466697 58.6210762,144.704509 C67.8497758,146.967727 77.926009,148.712291 88.5201794,149.8439 C94.8766816,158.56672 101.46861,166.487984 108.107623,173.419089 C92.7578475,187.705653 78.3497758,195.532616 68.5560538,195.532616 C66.4372197,195.485466 64.6479821,195.061112 63.235426,194.259556 Z M174.921525,158.330968 C177.134529,176.342412 174.403587,190.346075 168.047085,194.070954 C166.634529,194.919661 164.798206,195.296864 162.632287,195.296864 C152.88565,195.296864 138.430493,187.517052 123.080717,173.324788 C129.672646,166.393683 136.264574,158.51957 142.526906,149.79675 C153.168161,148.665141 163.244395,146.920577 172.473094,144.610208 C173.556054,149.372396 174.403587,153.945983 174.921525,158.330968 Z M193.049327,126.881666 C189,128.62623 184.573991,130.182193 180.006726,131.643854 C177.32287,122.40238 173.79148,112.783703 169.412556,102.929274 C173.744395,93.1219959 177.2287,83.5504692 179.865471,74.3561456 C184.526906,75.8178073 188.952915,77.4209201 193.096413,79.1654841 C209.764574,86.2851911 220.547085,95.6209659 220.547085,103.023575 C220.5,110.426184 209.717489,119.80911 193.049327,126.881666 Z" id="Shape"></path>
                <circle id="Oval" cx="115.5" cy="103.5" r="21.5"></circle>
            </g>
            <polygon id="+" fill="#000000" fill-rule="nonzero" points="360.351562 207.375 360.351562 177.023438 330 177.023438 330 168.351562 360.351562 168.351562 360.351562 138 369.023438 138 369.023438 168.351562 399.375 168.351562 399.375 177.023438 369.023438 177.023438 369.023438 207.375"></polygon>
            <polygon id="+" fill="#000000" fill-rule="nonzero" points="808.351562 207.375 808.351562 177.023438 778 177.023438 778 168.351562 808.351562 168.351562 808.351562 138 817.023438 138 817.023438 168.351562 847.375 168.351562 847.375 177.023438 817.023438 177.023438 817.023438 207.375"></polygon>
            <path d="M1243.61719,188.351562 L1243.61719,179.679688 L1312.99219,179.679688 L1312.99219,188.351562 L1243.61719,188.351562 Z M1243.61719,166.671875 L1243.61719,158 L1312.99219,158 L1312.99219,166.671875 L1243.61719,166.671875 Z" id="=" fill="#000000" fill-rule="nonzero"></path>
            <g id="A_perfect_SVG_heart" transform="translate(1374.000000, 0.000000)" fill="#D30000" fill-rule="nonzero">
                <g id="heart-link" transform="translate(137.971749, 138.838933) rotate(-135.000000) translate(-137.971749, -138.838933) translate(40.471749, 41.338933)">
                    <g id="heart">
                        <path d="M-5.43669135e-14,129.943026 L-5.43669135e-14,0 L129.882353,0 C165.748374,0 194.823528,29.0887376 194.823528,64.9715131 C194.823528,100.854289 165.748374,129.943026 129.882353,129.943026 C129.882353,165.825802 100.807198,194.914539 64.9411765,194.914539 C29.0751551,194.914539 -5.43669135e-14,165.825802 -5.43669135e-14,129.943026 Z" id="Path"></path>
                    </g>
                </g>
            </g>
        </g>
    </g>
</svg>
